<?xml version="1.0" standalone="no"?>
<!DOCTYPE svg PUBLIC "-//W3C//DTD SVG 20010904//EN"
 "http://www.w3.org/TR/2001/REC-SVG-20010904/DTD/svg10.dtd">
<svg version="1.0" xmlns="http://www.w3.org/2000/svg"
 width="1100.000000pt" height="784.000000pt" viewBox="0 0 1100.000000 784.000000"
 preserveAspectRatio="xMidYMid meet">

<g transform="translate(0.000000,784.000000) scale(0.100000,-0.100000)"
fill="#000000" stroke="none">
<path d="M6805 7829 c-390 -29 -786 -117 -1129 -251 -72 -28 -148 -57 -170
-65 -86 -31 -366 -178 -496 -261 -125 -79 -389 -267 -410 -292 -3 -3 -32 -28
-65 -55 -69 -58 -74 -62 -186 -171 -81 -78 -192 -195 -234 -245 -11 -14 -43
-51 -70 -84 -154 -182 -385 -541 -492 -765 -264 -551 -393 -1117 -393 -1724 0
-795 216 -1502 669 -2191 75 -113 256 -346 341 -436 199 -211 365 -361 590
-533 187 -142 559 -355 733 -421 34 -13 128 -48 209 -79 156 -60 391 -130 546
-164 l92 -20 0 44 c0 42 1 44 30 44 l30 0 0 230 c0 147 -4 230 -10 230 -5 0
-10 -4 -10 -10 0 -5 -4 -10 -10 -10 -5 0 -10 9 -10 19 0 16 -8 20 -37 23 l-38
3 -1 56 c0 31 -4 61 -8 67 -4 7 -1 12 8 12 8 0 37 20 63 45 26 25 54 43 61 40
7 -2 11 -1 8 4 -3 5 11 23 32 41 20 17 50 43 65 58 24 21 30 23 38 11 8 -12 9
-11 7 2 -2 9 11 29 27 45 17 17 86 88 155 159 68 72 128 129 133 127 5 -1 6 1
3 6 -3 5 20 40 52 77 80 95 118 144 148 190 15 22 39 54 55 72 15 18 35 48 44
68 10 19 21 35 26 35 5 0 9 7 9 15 0 8 4 15 9 15 5 0 12 8 15 18 3 9 22 42 42
72 65 98 261 496 308 625 21 55 66 188 66 192 0 1 -19 -5 -42 -14 -67 -24
-232 -29 -304 -8 -169 49 -280 169 -329 360 -19 76 -20 259 0 343 57 241 223
375 465 376 147 1 267 -48 353 -144 20 -21 37 -36 40 -34 3 3 13 -15 23 -40
12 -30 25 -46 37 -46 10 0 17 -8 17 -21 0 -12 -4 -17 -11 -13 -13 8 -1 -38 12
-46 4 -3 11 -21 14 -39 6 -33 6 -34 -27 -27 -30 6 -31 5 -13 -8 22 -17 60 -22
51 -7 -3 5 8 24 24 42 17 20 30 45 30 62 0 15 4 27 9 27 6 0 13 32 17 70 l7
70 83 0 c66 0 90 4 118 21 20 12 36 25 36 30 0 5 7 9 15 9 9 0 18 7 21 15 8
21 63 19 81 -2 8 -10 12 -12 8 -5 -3 7 0 12 8 12 8 0 14 7 13 16 0 9 5 19 13
22 10 3 12 0 8 -12 -9 -22 1 -20 39 9 18 14 41 25 51 26 15 0 14 2 -4 9 -31
13 -29 24 2 16 17 -4 25 -2 25 6 0 10 3 9 9 -1 7 -11 27 -13 98 -7 50 3 103 2
123 -4 24 -7 37 -7 45 2 7 8 6 9 -2 4 -9 -5 -13 -1 -13 11 0 11 -5 24 -12 31
-9 9 -9 15 0 24 7 7 12 33 12 59 0 40 3 48 23 54 l22 8 -22 4 c-28 5 -30 23
-3 23 11 0 20 5 20 10 0 7 293 10 860 10 853 0 860 0 860 -20 0 -13 7 -20 20
-20 11 0 20 -4 20 -10 0 -5 14 -10 30 -10 17 0 30 -4 30 -9 0 -5 14 -12 30
-16 26 -6 30 -11 30 -41 l0 -34 120 0 c73 0 120 -4 120 -10 0 -5 7 -10 15 -10
24 0 27 54 15 272 -15 304 -44 502 -110 775 -364 1482 -1585 2632 -3090 2907
-291 53 -708 77 -985 55z m835 -2683 c41 -15 81 -27 88 -28 6 -1 10 -3 8 -5
-2 -2 22 -29 54 -59 109 -103 152 -224 152 -419 1 -95 -4 -136 -22 -195 -12
-41 -23 -85 -23 -97 -1 -11 -5 -19 -9 -17 -4 3 -14 -9 -23 -26 -22 -42 -111
-127 -160 -152 -110 -57 -224 -76 -350 -59 -206 29 -353 162 -399 364 -21 89
-21 283 -1 362 46 180 162 302 335 350 88 24 255 15 350 -19z m1212 20 c164
-50 286 -185 313 -343 l7 -43 -136 0 -135 0 -12 43 c-37 125 -151 182 -258
127 -89 -45 -116 -120 -116 -320 0 -143 1 -146 32 -213 19 -40 37 -66 43 -62
6 4 9 1 8 -5 -2 -7 12 -21 29 -31 25 -14 47 -17 98 -14 60 4 70 8 103 41 42
42 59 72 68 119 l6 35 137 0 c76 0 141 -3 144 -6 3 -4 2 -15 -3 -25 -6 -10
-11 -31 -12 -46 -1 -15 -6 -34 -11 -40 -6 -9 -5 -18 2 -27 8 -10 8 -16 -2 -25
-8 -6 -16 -8 -19 -5 -3 3 -20 -20 -38 -51 -18 -31 -41 -61 -51 -68 -10 -6 -19
-17 -19 -23 0 -5 -16 -16 -35 -24 -27 -11 -32 -16 -23 -27 9 -11 5 -13 -23
-12 -41 3 -114 -22 -97 -32 6 -4 -8 -7 -33 -7 -24 0 -72 -4 -106 -7 -47 -6
-72 -3 -107 10 -25 10 -53 15 -62 11 -11 -4 -24 1 -36 14 -11 12 -27 19 -36
16 -9 -3 -24 -1 -32 5 -12 8 -10 9 8 4 12 -3 22 -4 22 0 0 8 -53 29 -69 26 -8
-1 -10 2 -5 10 5 9 2 10 -10 6 -13 -5 -17 -3 -13 7 7 18 -11 36 -29 29 -10 -4
-12 0 -7 13 4 12 3 15 -5 10 -8 -4 -10 -2 -6 8 3 8 -4 24 -15 35 -12 12 -19
21 -16 21 3 0 -1 10 -9 23 -55 86 -83 323 -53 461 8 38 13 76 10 85 -4 9 -2
12 2 8 5 -4 21 18 36 50 52 111 141 190 258 230 79 27 237 31 313 9z m-2620
-88 l3 -81 28 40 c59 86 156 123 319 123 l98 0 0 -114 0 -114 -152 -4 c-174
-3 -201 -13 -250 -83 -37 -53 -48 -134 -48 -352 l0 -173 195 0 195 0 0 -105 0
-105 -465 0 -465 0 0 105 0 105 130 0 130 0 0 310 0 310 -130 0 -130 0 0 110
0 110 270 0 269 0 3 -82z m2958 -702 c0 -3 -4 -8 -10 -11 -5 -3 -10 -1 -10 4
0 6 5 11 10 11 6 0 10 -2 10 -4z m-472 -553 c2 -9 -7 -13 -27 -13 -21 0 -31 5
-31 16 0 19 51 16 58 -3z m-78 -3 c0 -5 -4 -10 -10 -10 -5 0 -10 5 -10 10 0 6
5 10 10 10 6 0 10 -4 10 -10z m-2315 -81 c211 -55 336 -229 351 -489 17 -296
-117 -513 -356 -575 -98 -26 -263 -17 -350 19 -131 53 -228 158 -271 294 -29
92 -37 270 -15 370 42 199 153 327 326 376 30 8 69 17 85 20 43 6 183 -3 230
-15z m1522 -141 c-3 -8 -6 -5 -6 6 -1 11 2 17 5 13 3 -3 4 -12 1 -19z m-1598
-2868 c-21 -17 -22 -21 -9 -30 12 -9 11 -10 -7 -5 -13 4 -32 -1 -48 -11 -14
-9 -28 -14 -32 -11 -3 4 3 10 13 14 10 3 23 12 27 20 4 7 14 13 21 13 8 0 16
7 20 15 3 8 13 15 22 15 13 0 11 -4 -7 -20z m-154 -110 c4 -6 -6 -10 -22 -10
-22 0 -25 2 -13 10 19 12 27 12 35 0z m-140 -80 c-3 -5 -14 -10 -23 -10 -15 0
-15 2 -2 10 20 13 33 13 25 0z"/>
<path d="M7339 4947 c-83 -44 -126 -172 -116 -352 9 -178 54 -262 154 -291
106 -31 200 12 244 112 42 94 48 285 13 401 -19 62 -66 121 -110 139 -52 22
-134 18 -185 -9z"/>
<path d="M9140 4339 c0 -5 5 -7 10 -4 6 3 10 8 10 11 0 2 -4 4 -10 4 -5 0 -10
-5 -10 -11z"/>
<path d="M6106 3535 c-52 -18 -90 -57 -117 -119 -32 -70 -40 -299 -14 -379 37
-117 98 -167 201 -167 86 0 134 32 175 116 30 60 33 76 37 180 9 222 -41 342
-156 374 -49 13 -79 12 -126 -5z"/>
<path d="M8283 3582 c1 -14 5 -18 11 -12 7 7 6 14 -1 21 -9 9 -12 7 -10 -9z"/>
<path d="M8246 3551 c-4 -5 -4 -16 0 -24 3 -8 -2 -21 -10 -30 -9 -9 -16 -19
-16 -23 0 -4 -7 -12 -16 -19 -16 -11 -16 -12 0 -18 10 -4 16 -1 16 8 0 8 4 15
8 15 11 0 33 61 25 73 -3 5 1 13 8 18 9 6 10 9 2 9 -6 0 -14 -4 -17 -9z"/>
<path d="M7388 3538 c-22 -6 -51 -25 -72 -48 -112 -124 -95 -505 25 -591 47
-33 163 -35 206 -3 39 29 72 80 85 131 l10 43 65 0 c35 0 62 3 60 8 -3 4 2 41
10 82 8 41 17 95 21 120 5 28 10 40 15 32 5 -7 5 -21 2 -32 -5 -14 -2 -20 9
-20 10 0 16 9 16 25 0 14 5 25 11 25 5 0 8 4 4 10 -3 5 -12 7 -20 3 -9 -3 -15
1 -15 11 0 14 -14 16 -94 16 l-93 0 -6 38 c-4 20 -20 58 -36 83 -23 37 -39 50
-77 63 -53 18 -72 18 -126 4z"/>
<path d="M8800 3500 c-9 -6 -10 -10 -3 -10 6 0 15 5 18 10 8 12 4 12 -15 0z"/>
<path d="M7823 3073 c15 -2 37 -2 50 0 12 2 0 4 -28 4 -27 0 -38 -2 -22 -4z"/>
<path d="M6413 856 c-29 -14 -36 -32 -12 -32 11 0 19 4 19 8 0 4 9 8 20 8 11
0 20 6 20 13 0 16 -16 17 -47 3z"/>
<path d="M6377 103 c-13 -12 -7 -23 13 -23 13 0 18 5 14 15 -7 16 -17 19 -27
8z"/>
<path d="M6488 53 c7 -3 16 -2 19 1 4 3 -2 6 -13 5 -11 0 -14 -3 -6 -6z"/>
</g>
</svg>
