<?xml version="1.0" standalone="no"?>
<!DOCTYPE svg PUBLIC "-//W3C//DTD SVG 20010904//EN"
 "http://www.w3.org/TR/2001/REC-SVG-20010904/DTD/svg10.dtd">
<svg version="1.0" xmlns="http://www.w3.org/2000/svg"
 width="400.000000pt" height="400.000000pt" viewBox="0 0 400.000000 400.000000"
 preserveAspectRatio="xMidYMid meet">

<g transform="translate(0.000000,400.000000) scale(0.100000,-0.100000)"
fill="#000000" stroke="none">
<path d="M1850 3989 c-104 -13 -138 -18 -270 -45 -69 -14 -134 -29 -145 -34
-11 -4 -56 -20 -100 -35 -44 -16 -91 -34 -105 -41 -14 -7 -56 -27 -95 -44 -38
-17 -72 -35 -75 -38 -3 -4 -34 -22 -70 -41 -36 -19 -67 -37 -70 -40 -9 -10
-98 -71 -105 -71 -14 0 -134 -109 -258 -235 -113 -114 -202 -227 -212 -267 -4
-16 -12 -28 -17 -28 -6 0 -8 -7 -4 -15 3 -8 1 -14 -5 -12 -15 3 -90 -139 -83
-160 5 -14 4 -15 -4 -4 -8 11 -14 6 -26 -23 -9 -21 -13 -43 -9 -50 3 -6 3 -8
-2 -4 -4 4 -14 -5 -22 -19 -9 -18 -11 -29 -4 -31 6 -2 11 -8 11 -13 0 -4 -7
-6 -14 -3 -21 8 -46 -81 -35 -120 6 -20 4 -32 -6 -43 -13 -12 -14 -10 -9 19 5
29 4 31 -7 14 -7 -11 -11 -37 -11 -57 1 -22 -4 -44 -13 -53 -9 -8 -16 -18 -16
-21 0 -2 -2 -12 -6 -21 -3 -8 -3 -52 -1 -97 5 -75 5 -79 -6 -42 l-12 40 -13
-97 c-13 -99 -16 -145 -10 -163 1 -5 -3 -36 -11 -67 -23 -99 16 -390 81 -610
32 -107 67 -199 81 -208 4 -3 16 -26 27 -51 11 -25 30 -58 42 -73 11 -14 22
-32 23 -39 7 -38 113 -200 127 -192 5 4 6 0 3 -8 -6 -17 83 -132 101 -131 7 1
11 -4 8 -11 -6 -18 185 -208 202 -201 9 3 12 0 9 -8 -3 -7 5 -20 18 -28 13 -9
35 -26 49 -39 36 -34 154 -112 219 -145 30 -16 57 -32 60 -35 15 -16 120 -69
139 -69 11 0 21 -4 21 -10 0 -5 5 -10 11 -10 6 0 59 -17 118 -39 213 -78 536
-130 721 -116 307 22 539 80 783 194 49 22 92 41 98 41 5 0 9 3 9 8 0 4 17 16
38 27 39 20 179 114 223 149 14 12 43 34 65 51 43 33 149 139 228 230 268 307
421 664 470 1095 20 169 20 225 1 403 -30 278 -115 539 -259 794 -264 471
-777 843 -1311 951 -180 37 -446 56 -565 41z m-1540 -999 c0 -5 -5 -10 -11
-10 -5 0 -7 5 -4 10 3 6 8 10 11 10 2 0 4 -4 4 -10z m-30 -80 c0 -5 -5 -10
-11 -10 -5 0 -7 5 -4 10 3 6 8 10 11 10 2 0 4 -4 4 -10z m-78 -142 c-7 -7 -12
-8 -12 -2 0 14 12 26 19 19 2 -3 -1 -11 -7 -17z m-42 -92 c0 -3 -4 -8 -10 -11
-5 -3 -10 -1 -10 4 0 6 5 11 10 11 6 0 10 -2 10 -4z m-5 -44 c-3 -3 -11 0 -18
7 -9 10 -8 11 6 5 10 -3 15 -9 12 -12z m2 -64 c-3 -7 -5 -2 -5 12 0 14 2 19 5
13 2 -7 2 -19 0 -25z m-19 -83 c-3 -3 -9 2 -12 12 -6 14 -5 15 5 6 7 -7 10
-15 7 -18z m1029 -26 c148 -19 208 -54 293 -169 45 -61 53 -80 70 -162 28
-135 46 -183 77 -197 20 -9 30 -9 48 3 28 18 32 31 85 266 23 102 46 202 52
223 l9 37 192 -2 192 -3 16 -65 c33 -129 51 -207 73 -305 26 -117 38 -143 70
-151 32 -8 61 9 73 43 11 30 40 173 75 366 l21 117 200 0 199 0 -5 -22 c-2
-13 -29 -115 -59 -228 -31 -113 -58 -221 -62 -240 -6 -33 -46 -189 -101 -395
-24 -87 -66 -252 -79 -308 l-6 -27 -212 2 -212 3 -18 70 c-10 39 -23 88 -28
110 -21 91 -88 306 -100 320 -7 8 -25 15 -41 15 -37 0 -55 -28 -79 -124 -10
-41 -27 -103 -39 -138 -11 -35 -27 -95 -35 -133 -8 -39 -19 -83 -25 -98 l-11
-27 -212 2 -212 3 -8 40 c-5 22 -11 47 -15 55 -3 8 -7 22 -8 30 -1 8 -13 58
-28 110 -14 52 -28 118 -32 145 -4 28 -13 64 -21 80 -17 37 -71 244 -90 343
-7 40 -18 81 -24 91 -5 11 -16 46 -24 78 -8 32 -24 95 -36 141 -19 73 -21 112
-6 112 2 0 40 -5 83 -11z m-1123 -260 c-5 -52 -3 -73 6 -79 8 -5 9 -10 2 -14
-17 -10 -25 32 -17 100 4 35 9 64 11 64 3 0 2 -32 -2 -71z m49 34 c-20 -8 -15
-29 9 -40 14 -6 18 -12 11 -16 -6 -4 -19 0 -27 9 -15 14 -16 14 -16 -5 0 -11
-4 -22 -9 -25 -4 -3 -3 15 2 39 7 31 15 45 26 44 11 0 12 -2 4 -6z m67 -8
c-14 -7 -27 -11 -30 -9 -6 7 22 24 40 23 9 0 5 -6 -10 -14z m0 -155 c0 -5 -2
-10 -4 -10 -3 0 -8 5 -11 10 -3 6 -1 10 4 10 6 0 11 -4 11 -10z m-36 -35 c-4
-8 -10 -15 -15 -15 -4 0 -6 7 -3 15 4 8 10 15 15 15 4 0 6 -7 3 -15z m31 -14
c-6 -21 -25 -29 -25 -11 0 6 5 10 10 10 6 0 10 8 10 17 0 9 3 14 6 10 3 -3 3
-15 -1 -26z m-13 -118 c10 -9 18 -23 18 -32 0 -11 -3 -12 -11 -4 -6 6 -19 9
-28 6 -13 -4 -14 -3 -2 5 12 9 12 13 2 26 -18 21 -3 20 21 -1z m241 -10 c-13
-2 -33 -2 -45 0 -13 2 -3 4 22 4 25 0 35 -2 23 -4z m-83 -153 c0 -5 -5 -10
-11 -10 -5 0 -7 5 -4 10 3 6 8 10 11 10 2 0 4 -4 4 -10z m-190 -41 c0 -6 -4
-7 -10 -4 -5 3 -10 11 -10 16 0 6 5 7 10 4 6 -3 10 -11 10 -16z m100 -53 c0
-2 -8 -10 -17 -17 -16 -13 -17 -12 -4 4 13 16 21 21 21 13z m-64 -163 c-3 -7
-10 -13 -16 -13 -7 0 -8 6 -2 18 5 9 8 33 6 52 -3 34 -3 34 7 -5 5 -21 7 -45
5 -52z m274 -28 c11 -13 10 -14 -4 -9 -9 3 -16 10 -16 15 0 13 6 11 20 -6z
m-195 -205 c3 -5 1 -10 -4 -10 -6 0 -11 5 -11 10 0 6 2 10 4 10 3 0 8 -4 11
-10z m-30 -20 c3 -5 1 -10 -4 -10 -6 0 -11 5 -11 10 0 6 2 10 4 10 3 0 8 -4
11 -10z m115 -220 c0 -5 -2 -10 -4 -10 -3 0 -8 5 -11 10 -3 6 -1 10 4 10 6 0
11 -4 11 -10z m225 -320 c3 -5 1 -10 -4 -10 -6 0 -11 5 -11 10 0 6 2 10 4 10
3 0 8 -4 11 -10z m160 -160 c3 -5 1 -10 -4 -10 -6 0 -11 5 -11 10 0 6 2 10 4
10 3 0 8 -4 11 -10z"/>
</g>
</svg>
